<svg width="869" height="240" viewBox="0 0 869 240" fill="none" xmlns="http://www.w3.org/2000/svg">
<g clip-path="url(#clip0_667_584)">
<path d="M90 115.5C90 109.701 94.701 105 100.5 105V105C106.299 105 111 109.701 111 115.5L111 124.5C111 130.299 106.299 135 100.5 135V135C94.701 135 90 130.299 90 124.5L90 115.5Z" fill="white"/>
<path fill-rule="evenodd" clip-rule="evenodd" d="M110 124.5L110 115.5C110 110.253 105.747 106 100.5 106C95.2533 106 91 110.253 91 115.5L91 124.5C91 129.747 95.2533 134 100.5 134C105.747 134 110 129.747 110 124.5ZM100.5 105C94.701 105 90 109.701 90 115.5L90 124.5C90 130.299 94.701 135 100.5 135C106.299 135 111 130.299 111 124.5L111 115.5C111 109.701 106.299 105 100.5 105Z" fill="white"/>
<path d="M167 115.5C167 109.701 171.701 105 177.5 105V105C183.299 105 188 109.701 188 115.5L188 124.5C188 130.299 183.299 135 177.5 135V135C171.701 135 167 130.299 167 124.5L167 115.5Z" fill="white"/>
<path fill-rule="evenodd" clip-rule="evenodd" d="M187 124.5L187 115.5C187 110.253 182.747 106 177.5 106C172.253 106 168 110.253 168 115.5L168 124.5C168 129.747 172.253 134 177.5 134C182.747 134 187 129.747 187 124.5ZM177.5 105C171.701 105 167 109.701 167 115.5L167 124.5C167 130.299 171.701 135 177.5 135C183.299 135 188 130.299 188 124.5L188 115.5C188 109.701 183.299 105 177.5 105Z" fill="white"/>
<path d="M90 160.5C90 154.701 94.701 150 100.5 150V150C106.299 150 111 154.701 111 160.5L111 169.5C111 175.299 106.299 180 100.5 180V180C94.701 180 90 175.299 90 169.5L90 160.5Z" fill="white"/>
<path fill-rule="evenodd" clip-rule="evenodd" d="M110 169.5L110 160.5C110 155.253 105.747 151 100.5 151C95.2533 151 91 155.253 91 160.5L91 169.5C91 174.747 95.2533 179 100.5 179C105.747 179 110 174.747 110 169.5ZM100.5 150C94.701 150 90 154.701 90 160.5L90 169.5C90 175.299 94.701 180 100.5 180C106.299 180 111 175.299 111 169.5L111 160.5C111 154.701 106.299 150 100.5 150Z" fill="white"/>
<path d="M90 70.5C90 64.701 94.701 60 100.5 60V60C106.299 60 111 64.701 111 70.5L111 79.5C111 85.299 106.299 90 100.5 90V90C94.701 90 90 85.299 90 79.5L90 70.5Z" fill="white"/>
<path fill-rule="evenodd" clip-rule="evenodd" d="M110 79.5L110 70.5C110 65.2533 105.747 61 100.5 61C95.2533 61 91 65.2533 91 70.5L91 79.5C91 84.7467 95.2533 89 100.5 89C105.747 89 110 84.7467 110 79.5ZM100.5 60C94.701 60 90 64.701 90 70.5L90 79.5C90 85.299 94.701 90 100.5 90C106.299 90 111 85.299 111 79.5L111 70.5C111 64.701 106.299 60 100.5 60Z" fill="white"/>
<path d="M52 115.5C52 109.701 56.701 105 62.5 105V105C68.299 105 73 109.701 73 115.5L73 124.5C73 130.299 68.299 135 62.5 135V135C56.701 135 52 130.299 52 124.5L52 115.5Z" fill="white"/>
<path fill-rule="evenodd" clip-rule="evenodd" d="M72 124.5L72 115.5C72 110.253 67.7467 106 62.5 106C57.2533 106 53 110.253 53 115.5L53 124.5C53 129.747 57.2533 134 62.5 134C67.7467 134 72 129.747 72 124.5ZM62.5 105C56.701 105 52 109.701 52 115.5L52 124.5C52 130.299 56.701 135 62.5 135C68.299 135 73 130.299 73 124.5L73 115.5C73 109.701 68.299 105 62.5 105Z" fill="white"/>
<path fill-rule="evenodd" clip-rule="evenodd" d="M120 226C178.542 226 226 178.542 226 120C226 61.4578 178.542 14 120 14C61.4578 14 14 61.4578 14 120C14 178.542 61.4578 226 120 226ZM120 240C186.274 240 240 186.274 240 120C240 53.7258 186.274 0 120 0C53.7258 0 0 53.7258 0 120C0 186.274 53.7258 240 120 240Z" fill="white"/>
<path d="M129 99C129 93.4772 133.477 89 139 89V89C144.523 89 149 93.4772 149 99L149 142C149 147.523 144.523 152 139 152V152C133.477 152 129 147.523 129 142L129 99Z" fill="white"/>
<path fill-rule="evenodd" clip-rule="evenodd" d="M148 142L148 99C148 94.0294 143.971 90 139 90C134.029 90 130 94.0294 130 99L130 142C130 146.971 134.029 151 139 151C143.971 151 148 146.971 148 142ZM139 89C133.477 89 129 93.4772 129 99L129 142C129 147.523 133.477 152 139 152C144.523 152 149 147.523 149 142L149 99C149 93.4772 144.523 89 139 89Z" fill="white"/>
<path d="M854.72 62.6865C854.72 61.5244 854.913 60.5007 855.301 59.6152C855.743 58.7298 856.325 58.0104 857.044 57.457C857.763 56.8483 858.566 56.4056 859.451 56.1289C860.337 55.7969 861.25 55.6309 862.19 55.6309C864.017 55.6309 865.677 56.2119 867.171 57.374C868.72 58.5361 869.495 60.307 869.495 62.6865V167.027C869.495 168.189 869.274 169.213 868.831 170.099C868.444 170.984 867.89 171.731 867.171 172.34C866.451 172.893 865.649 173.308 864.764 173.585C863.878 173.862 862.965 174 862.024 174C860.198 174 858.51 173.419 856.961 172.257C855.467 171.095 854.72 169.352 854.72 167.027V62.6865Z" fill="white"/>
<path d="M839.688 165.035C839.965 165.976 840.103 166.751 840.103 167.359C840.103 168.355 839.882 169.269 839.439 170.099C838.997 170.929 838.388 171.648 837.613 172.257C836.894 172.81 836.064 173.253 835.123 173.585C834.182 173.862 833.242 174 832.301 174C830.973 174 829.728 173.668 828.565 173.004C827.403 172.285 826.573 171.15 826.075 169.601L815.45 143.038H756.764L746.222 169.601C745.668 171.205 744.838 172.34 743.731 173.004C742.625 173.668 741.435 174 740.162 174C739.221 174 738.308 173.862 737.423 173.585C736.537 173.253 735.735 172.81 735.016 172.257C734.352 171.648 733.798 170.956 733.355 170.182C732.913 169.352 732.691 168.466 732.691 167.525C732.691 166.806 732.857 165.976 733.189 165.035L772.701 68.5801C773.753 65.8132 774.804 63.5719 775.855 61.8564C776.907 60.141 777.958 58.8405 779.01 57.9551C780.117 57.0143 781.251 56.4056 782.413 56.1289C783.631 55.7969 784.931 55.6309 786.314 55.6309C787.698 55.6309 788.971 55.7969 790.133 56.1289C791.35 56.4056 792.512 57.0143 793.619 57.9551C794.726 58.8958 795.777 60.224 796.773 61.9395C797.825 63.5996 798.904 65.8132 800.011 68.5801L839.688 165.035ZM786.065 67.833L760.914 131.832H811.3L786.231 67.833H786.065Z" fill="white"/>
<path d="M684.458 159.806C691.154 159.806 696.328 157.398 699.98 152.584C703.633 147.714 705.459 140.963 705.459 132.33C705.459 123.476 703.633 116.642 699.98 111.827C696.383 106.957 691.209 104.522 684.458 104.522C677.707 104.522 672.505 106.957 668.853 111.827C665.256 116.642 663.457 123.476 663.457 132.33C663.457 140.908 665.283 147.631 668.936 152.501C672.588 157.371 677.762 159.806 684.458 159.806ZM684.458 174.996C677.153 174.996 670.596 173.862 664.785 171.593C659.03 169.269 654.382 166.142 650.84 162.213C647.298 158.229 644.614 153.718 642.788 148.683C640.962 143.591 640.049 138.141 640.049 132.33C640.049 126.575 640.934 121.152 642.705 116.061C644.531 110.969 647.215 106.432 650.757 102.447C654.299 98.4076 658.947 95.2256 664.702 92.9014C670.513 90.5218 677.098 89.332 684.458 89.332C691.652 89.332 698.099 90.4665 703.799 92.7354C709.499 94.9489 714.147 98.0202 717.744 101.949C721.341 105.878 724.08 110.416 725.962 115.562C727.899 120.709 728.867 126.298 728.867 132.33C728.867 137.975 727.954 143.315 726.128 148.351C724.302 153.386 721.618 157.924 718.076 161.964C714.59 165.948 709.941 169.13 704.131 171.51C698.376 173.834 691.818 174.996 684.458 174.996Z" fill="white"/>
<path d="M586.834 131.998C586.834 139.635 588.688 145.86 592.396 150.675C596.103 155.434 601.36 157.813 608.167 157.813C614.199 157.813 619.65 156.402 624.52 153.58C625.958 152.75 627.369 152.335 628.753 152.335C629.417 152.335 630.053 152.446 630.662 152.667C631.326 152.833 631.907 153.11 632.405 153.497C632.959 153.829 633.429 154.244 633.816 154.742C634.259 155.24 634.619 155.794 634.896 156.402C635.228 156.956 635.477 157.564 635.643 158.229C635.809 158.893 635.892 159.584 635.892 160.304C635.892 163.181 634.674 165.644 632.239 167.691C629.749 169.794 626.124 171.537 621.365 172.921C616.661 174.304 611.432 174.996 605.677 174.996C593.558 174.996 583.458 171.095 575.379 163.292C567.355 155.434 563.343 145.03 563.343 132.081C563.343 124.112 565.141 116.891 568.738 110.416C572.391 103.886 577.482 98.7396 584.012 94.9766C590.597 91.2135 597.985 89.332 606.175 89.332C611.432 89.332 616.219 90.0238 620.535 91.4072C624.852 92.7354 628.31 94.3955 630.911 96.3877C632.239 97.3838 633.208 98.4906 633.816 99.708C634.48 100.925 634.812 102.198 634.812 103.526C634.812 105.574 634.093 107.372 632.654 108.922C631.271 110.416 629.555 111.163 627.508 111.163C627.286 111.163 627.065 111.163 626.844 111.163C626.622 111.163 626.401 111.135 626.18 111.08C625.958 111.025 625.709 110.969 625.433 110.914C625.211 110.859 624.99 110.803 624.769 110.748C624.547 110.637 624.298 110.527 624.021 110.416C623.8 110.305 623.579 110.195 623.357 110.084C618.377 107.594 613.562 106.349 608.914 106.349C605.538 106.349 602.467 106.93 599.7 108.092C596.989 109.254 594.664 110.942 592.728 113.155C590.846 115.313 589.38 117.997 588.328 121.207C587.332 124.417 586.834 128.014 586.834 131.998Z" fill="white"/>
<path d="M541.837 174C538.074 174 535.196 172.838 533.204 170.514C531.212 168.189 530.216 164.786 530.216 160.304V104.356C530.216 99.9294 531.184 96.5537 533.121 94.2295C535.113 91.8499 537.908 90.6602 541.505 90.6602C545.268 90.6602 548.173 91.8499 550.221 94.2295C552.324 96.5537 553.375 99.9294 553.375 104.356V160.304C553.375 164.731 552.379 168.134 550.387 170.514C548.45 172.838 545.6 174 541.837 174ZM541.754 73.9756C537.825 73.9756 534.671 72.8688 532.291 70.6553C529.911 68.4417 528.722 65.5365 528.722 61.9395C528.722 58.3424 529.911 55.4372 532.291 53.2236C534.726 50.9548 537.908 49.8203 541.837 49.8203C545.711 49.8203 548.837 50.9548 551.217 53.2236C553.652 55.4372 554.869 58.3424 554.869 61.9395C554.869 65.5365 553.652 68.4417 551.217 70.6553C548.837 72.8688 545.683 73.9756 541.754 73.9756Z" fill="white"/>
<path d="M503.148 174C499.551 174 496.785 172.838 494.848 170.514C492.911 168.134 491.942 164.731 491.942 160.304V67.667C491.942 63.2952 492.911 59.9473 494.848 57.623C496.84 55.2435 499.634 54.0537 503.231 54.0537C506.994 54.0537 509.9 55.2435 511.947 57.623C514.05 59.9473 515.102 63.2952 515.102 67.667V160.304C515.102 164.731 514.05 168.134 511.947 170.514C509.844 172.838 506.911 174 503.148 174Z" fill="white"/>
<path d="M464.792 174C461.195 174 458.428 172.838 456.491 170.514C454.554 168.134 453.586 164.731 453.586 160.304V67.667C453.586 63.2952 454.554 59.9473 456.491 57.623C458.483 55.2435 461.278 54.0537 464.875 54.0537C468.638 54.0537 471.543 55.2435 473.591 57.623C475.694 59.9473 476.745 63.2952 476.745 67.667V160.304C476.745 164.731 475.694 168.134 473.591 170.514C471.488 172.838 468.555 174 464.792 174Z" fill="white"/>
<path d="M406.183 174.996C393.123 174.941 382.553 171.122 374.474 163.541C366.45 155.96 362.438 145.335 362.438 131.666C362.438 123.919 364.098 116.863 367.418 110.499C370.794 104.135 375.719 99.0439 382.193 95.2256C388.668 91.3519 396.111 89.415 404.522 89.415C411.108 89.415 416.918 90.4941 421.954 92.6523C426.99 94.8105 431.002 97.7712 433.99 101.534C436.979 105.297 439.22 109.531 440.714 114.234C442.263 118.938 443.066 124.057 443.121 129.591C443.121 131.804 442.512 133.548 441.295 134.82C440.133 136.093 438.417 136.729 436.148 136.729H385.514C386.233 151.616 393.897 159.059 408.507 159.059C415.701 159.059 422.895 156.319 430.089 150.841C431.085 150.011 432.192 149.596 433.409 149.596C434.35 149.596 435.263 149.845 436.148 150.343C437.089 150.841 437.892 151.477 438.556 152.252C439.22 153.027 439.745 153.94 440.133 154.991C440.576 155.987 440.797 156.983 440.797 157.979C440.797 158.256 440.769 158.505 440.714 158.727C440.714 158.948 440.686 159.197 440.631 159.474C440.631 159.695 440.576 159.916 440.465 160.138C440.409 160.359 440.326 160.58 440.216 160.802C440.105 161.023 439.994 161.244 439.884 161.466C439.773 161.687 439.635 161.909 439.469 162.13C439.303 162.351 439.109 162.573 438.888 162.794C438.722 163.015 438.528 163.209 438.307 163.375C429.618 171.122 418.91 174.996 406.183 174.996ZM385.68 124.859H423.614C422.618 110.693 416.42 103.609 405.021 103.609C399.155 103.609 394.562 105.657 391.241 109.752C387.921 113.847 386.067 118.883 385.68 124.859Z" fill="white"/>
<path d="M337.445 174.83C329.643 174.775 323.555 172.423 319.184 167.774C314.812 163.071 312.626 155.987 312.626 146.524V106.183H305.736C300.313 106.183 297.602 103.526 297.602 98.2139C297.602 95.945 298.238 94.1465 299.511 92.8184C300.839 91.4902 302.831 90.8262 305.487 90.8262H313.539L315.78 71.6514C316.666 63.6826 320.401 59.6982 326.986 59.6982C332.852 59.6982 335.785 63.7103 335.785 71.7344V90.8262H347.821C353.023 90.8262 355.624 93.4271 355.624 98.6289C355.624 103.665 352.94 106.183 347.572 106.183H335.785V141.129C335.785 146.995 336.477 151.256 337.86 153.912C339.299 156.513 341.817 157.813 345.414 157.813C345.746 157.813 346.078 157.813 346.41 157.813L351.889 157.564C352.055 157.564 352.221 157.564 352.387 157.564C354.6 157.564 356.343 158.367 357.616 159.972C358.889 161.576 359.525 163.458 359.525 165.616C359.525 166.889 359.304 168.023 358.861 169.02C358.474 169.96 357.976 170.763 357.367 171.427C356.758 172.035 355.901 172.561 354.794 173.004C353.687 173.447 352.636 173.779 351.64 174C350.699 174.277 349.426 174.47 347.821 174.581C346.216 174.692 344.833 174.747 343.671 174.747C342.564 174.802 341.07 174.83 339.188 174.83C339.022 174.83 338.829 174.83 338.607 174.83C338.386 174.83 338.165 174.83 337.943 174.83C337.777 174.83 337.611 174.83 337.445 174.83Z" fill="white"/>
<path d="M280.993 174C277.23 174 274.353 172.838 272.36 170.514C270.368 168.189 269.372 164.786 269.372 160.304V104.356C269.372 99.9294 270.34 96.5537 272.277 94.2295C274.27 91.8499 277.064 90.6602 280.661 90.6602C284.424 90.6602 287.329 91.8499 289.377 94.2295C291.48 96.5537 292.531 99.9294 292.531 104.356V160.304C292.531 164.731 291.535 168.134 289.543 170.514C287.606 172.838 284.756 174 280.993 174ZM280.91 73.9756C276.981 73.9756 273.827 72.8688 271.447 70.6553C269.068 68.4417 267.878 65.5365 267.878 61.9395C267.878 58.3424 269.068 55.4372 271.447 53.2236C273.882 50.9548 277.064 49.8203 280.993 49.8203C284.867 49.8203 287.993 50.9548 290.373 53.2236C292.808 55.4372 294.025 58.3424 294.025 61.9395C294.025 65.5365 292.808 68.4417 290.373 70.6553C287.993 72.8688 284.839 73.9756 280.91 73.9756Z" fill="white"/>
</g>
<defs>
<clipPath id="clip0_667_584">
<rect width="869" height="240" fill="white"/>
</clipPath>
</defs>
</svg>
