<svg width="240" height="240" viewBox="0 0 240 240" fill="none"
  xmlns="http://www.w3.org/2000/svg">
  <g clip-path="url(#clip0_667_584)">
    <path d="M90 115.5C90 109.701 94.701 105 100.5 105V105C106.299 105 111 109.701 111 115.5L111 124.5C111 130.299 106.299 135 100.5 135V135C94.701 135 90 130.299 90 124.5L90 115.5Z" fill="white"/>
    <path fill-rule="evenodd" clip-rule="evenodd" d="M110 124.5L110 115.5C110 110.253 105.747 106 100.5 106C95.2533 106 91 110.253 91 115.5L91 124.5C91 129.747 95.2533 134 100.5 134C105.747 134 110 129.747 110 124.5ZM100.5 105C94.701 105 90 109.701 90 115.5L90 124.5C90 130.299 94.701 135 100.5 135C106.299 135 111 130.299 111 124.5L111 115.5C111 109.701 106.299 105 100.5 105Z" fill="white"/>
    <path d="M167 115.5C167 109.701 171.701 105 177.5 105V105C183.299 105 188 109.701 188 115.5L188 124.5C188 130.299 183.299 135 177.5 135V135C171.701 135 167 130.299 167 124.5L167 115.5Z" fill="white"/>
    <path fill-rule="evenodd" clip-rule="evenodd" d="M187 124.5L187 115.5C187 110.253 182.747 106 177.5 106C172.253 106 168 110.253 168 115.5L168 124.5C168 129.747 172.253 134 177.5 134C182.747 134 187 129.747 187 124.5ZM177.5 105C171.701 105 167 109.701 167 115.5L167 124.5C167 130.299 171.701 135 177.5 135C183.299 135 188 130.299 188 124.5L188 115.5C188 109.701 183.299 105 177.5 105Z" fill="white"/>
    <path d="M90 160.5C90 154.701 94.701 150 100.5 150V150C106.299 150 111 154.701 111 160.5L111 169.5C111 175.299 106.299 180 100.5 180V180C94.701 180 90 175.299 90 169.5L90 160.5Z" fill="white"/>
    <path fill-rule="evenodd" clip-rule="evenodd" d="M110 169.5L110 160.5C110 155.253 105.747 151 100.5 151C95.2533 151 91 155.253 91 160.5L91 169.5C91 174.747 95.2533 179 100.5 179C105.747 179 110 174.747 110 169.5ZM100.5 150C94.701 150 90 154.701 90 160.5L90 169.5C90 175.299 94.701 180 100.5 180C106.299 180 111 175.299 111 169.5L111 160.5C111 154.701 106.299 150 100.5 150Z" fill="white"/>
    <path d="M90 70.5C90 64.701 94.701 60 100.5 60V60C106.299 60 111 64.701 111 70.5L111 79.5C111 85.299 106.299 90 100.5 90V90C94.701 90 90 85.299 90 79.5L90 70.5Z" fill="white"/>
    <path fill-rule="evenodd" clip-rule="evenodd" d="M110 79.5L110 70.5C110 65.2533 105.747 61 100.5 61C95.2533 61 91 65.2533 91 70.5L91 79.5C91 84.7467 95.2533 89 100.5 89C105.747 89 110 84.7467 110 79.5ZM100.5 60C94.701 60 90 64.701 90 70.5L90 79.5C90 85.299 94.701 90 100.5 90C106.299 90 111 85.299 111 79.5L111 70.5C111 64.701 106.299 60 100.5 60Z" fill="white"/>
    <path d="M52 115.5C52 109.701 56.701 105 62.5 105V105C68.299 105 73 109.701 73 115.5L73 124.5C73 130.299 68.299 135 62.5 135V135C56.701 135 52 130.299 52 124.5L52 115.5Z" fill="white"/>
    <path fill-rule="evenodd" clip-rule="evenodd" d="M72 124.5L72 115.5C72 110.253 67.7467 106 62.5 106C57.2533 106 53 110.253 53 115.5L53 124.5C53 129.747 57.2533 134 62.5 134C67.7467 134 72 129.747 72 124.5ZM62.5 105C56.701 105 52 109.701 52 115.5L52 124.5C52 130.299 56.701 135 62.5 135C68.299 135 73 130.299 73 124.5L73 115.5C73 109.701 68.299 105 62.5 105Z" fill="white"/>
    <path fill-rule="evenodd" clip-rule="evenodd" d="M120 226C178.542 226 226 178.542 226 120C226 61.4578 178.542 14 120 14C61.4578 14 14 61.4578 14 120C14 178.542 61.4578 226 120 226ZM120 240C186.274 240 240 186.274 240 120C240 53.7258 186.274 0 120 0C53.7258 0 0 53.7258 0 120C0 186.274 53.7258 240 120 240Z" fill="white"/>
    <path d="M129 99C129 93.4772 133.477 89 139 89V89C144.523 89 149 93.4772 149 99L149 142C149 147.523 144.523 152 139 152V152C133.477 152 129 147.523 129 142L129 99Z" fill="white"/>
    <path fill-rule="evenodd" clip-rule="evenodd" d="M148 142L148 99C148 94.0294 143.971 90 139 90C134.029 90 130 94.0294 130 99L130 142C130 146.971 134.029 151 139 151C143.971 151 148 146.971 148 142ZM139 89C133.477 89 129 93.4772 129 99L129 142C129 147.523 133.477 152 139 152C144.523 152 149 147.523 149 142L149 99C149 93.4772 144.523 89 139 89Z" fill="white"/>
  </g>
  <defs>
    <clipPath id="clip0_667_584">
      <rect width="240" height="240" fill="white"/>
    </clipPath>
  </defs>
</svg>
